%TF.GenerationSoftware,KiCad,Pcbnew,(6.0.10)*%
%TF.CreationDate,2023-04-23T12:07:47+05:45*%
%TF.ProjectId,first_project,66697273-745f-4707-926f-6a6563742e6b,0*%
%TF.SameCoordinates,Original*%
%TF.FileFunction,Legend,Top*%
%TF.FilePolarity,Positive*%
%FSLAX46Y46*%
G04 Gerber Fmt 4.6, Leading zero omitted, Abs format (unit mm)*
G04 Created by KiCad (PCBNEW (6.0.10)) date 2023-04-23 12:07:47*
%MOMM*%
%LPD*%
G01*
G04 APERTURE LIST*
%ADD10C,0.150000*%
%ADD11C,0.120000*%
G04 APERTURE END LIST*
D10*
%TO.C,R1*%
X128103333Y-109852380D02*
X127770000Y-109376190D01*
X127531904Y-109852380D02*
X127531904Y-108852380D01*
X127912857Y-108852380D01*
X128008095Y-108900000D01*
X128055714Y-108947619D01*
X128103333Y-109042857D01*
X128103333Y-109185714D01*
X128055714Y-109280952D01*
X128008095Y-109328571D01*
X127912857Y-109376190D01*
X127531904Y-109376190D01*
X129055714Y-109852380D02*
X128484285Y-109852380D01*
X128770000Y-109852380D02*
X128770000Y-108852380D01*
X128674761Y-108995238D01*
X128579523Y-109090476D01*
X128484285Y-109138095D01*
%TO.C,D1*%
X111272348Y-106067427D02*
X110272348Y-106067427D01*
X110272348Y-105829332D01*
X110319968Y-105686474D01*
X110415206Y-105591236D01*
X110510444Y-105543617D01*
X110700920Y-105495998D01*
X110843777Y-105495998D01*
X111034253Y-105543617D01*
X111129491Y-105591236D01*
X111224729Y-105686474D01*
X111272348Y-105829332D01*
X111272348Y-106067427D01*
X111272348Y-104543617D02*
X111272348Y-105115046D01*
X111272348Y-104829332D02*
X110272348Y-104829332D01*
X110415206Y-104924570D01*
X110510444Y-105019808D01*
X110558063Y-105115046D01*
D11*
%TO.C,R1*%
X132890000Y-108400000D02*
X132890000Y-104960000D01*
X133580000Y-106680000D02*
X132890000Y-106680000D01*
X122960000Y-106680000D02*
X123650000Y-106680000D01*
X123650000Y-104960000D02*
X123650000Y-108400000D01*
X132890000Y-104960000D02*
X123650000Y-104960000D01*
X123650000Y-108400000D02*
X132890000Y-108400000D01*
%TO.C,D1*%
X108404968Y-102769332D02*
X105314968Y-102769332D01*
X105315138Y-102769332D02*
G75*
G03*
X106860430Y-108319332I1544830J-2560000D01*
G01*
X106859506Y-108319332D02*
G75*
G03*
X108404798Y-102769332I462J2990000D01*
G01*
X109359968Y-105329332D02*
G75*
G03*
X109359968Y-105329332I-2500000J0D01*
G01*
%TD*%
M02*
