%TF.GenerationSoftware,KiCad,Pcbnew,(6.0.10)*%
%TF.CreationDate,2023-04-23T12:07:47+05:45*%
%TF.ProjectId,first_project,66697273-745f-4707-926f-6a6563742e6b,0*%
%TF.SameCoordinates,Original*%
%TF.FileFunction,Legend,Bot*%
%TF.FilePolarity,Positive*%
%FSLAX46Y46*%
G04 Gerber Fmt 4.6, Leading zero omitted, Abs format (unit mm)*
G04 Created by KiCad (PCBNEW (6.0.10)) date 2023-04-23 12:07:47*
%MOMM*%
%LPD*%
G01*
G04 APERTURE LIST*
%ADD10C,0.150000*%
%ADD11C,0.120000*%
G04 APERTURE END LIST*
D10*
%TO.C,BT1*%
X122705714Y-96448571D02*
X122562857Y-96496190D01*
X122515238Y-96543809D01*
X122467619Y-96639047D01*
X122467619Y-96781904D01*
X122515238Y-96877142D01*
X122562857Y-96924761D01*
X122658095Y-96972380D01*
X123039047Y-96972380D01*
X123039047Y-95972380D01*
X122705714Y-95972380D01*
X122610476Y-96020000D01*
X122562857Y-96067619D01*
X122515238Y-96162857D01*
X122515238Y-96258095D01*
X122562857Y-96353333D01*
X122610476Y-96400952D01*
X122705714Y-96448571D01*
X123039047Y-96448571D01*
X122181904Y-95972380D02*
X121610476Y-95972380D01*
X121896190Y-96972380D02*
X121896190Y-95972380D01*
X120753333Y-96972380D02*
X121324761Y-96972380D01*
X121039047Y-96972380D02*
X121039047Y-95972380D01*
X121134285Y-96115238D01*
X121229523Y-96210476D01*
X121324761Y-96258095D01*
D11*
X123580000Y-94810000D02*
X125780000Y-97010000D01*
X107610000Y-87000000D02*
X107610000Y-85290000D01*
X136230000Y-90800000D02*
X136230000Y-92510000D01*
X120260000Y-94810000D02*
X123580000Y-94810000D01*
X129767300Y-80790000D02*
X114072700Y-80790000D01*
X107610000Y-92510000D02*
X111228000Y-92510000D01*
X111228000Y-85290000D02*
X107610000Y-85290000D01*
X132612000Y-92510000D02*
X136230000Y-92510000D01*
X114072700Y-97010000D02*
X118060000Y-97010000D01*
X120260000Y-94810000D02*
X118060000Y-97010000D01*
X136230000Y-85290000D02*
X132612000Y-85290000D01*
X136230000Y-87000000D02*
X136230000Y-85290000D01*
X125780000Y-97010000D02*
X129767300Y-97010000D01*
X107610000Y-90800000D02*
X107610000Y-92510000D01*
X111228000Y-92510000D02*
G75*
G03*
X114074629Y-97011789I10692020J3610012D01*
G01*
X114074629Y-80788211D02*
G75*
G03*
X111228000Y-85290000I7845371J-8111789D01*
G01*
X132611999Y-85290000D02*
G75*
G03*
X129765371Y-80788211I-10692019J-3610010D01*
G01*
X129765371Y-97011789D02*
G75*
G03*
X132612000Y-92510000I-7845366J8111785D01*
G01*
%TD*%
M02*
